Coordinates
version=1
nRows=17
nColumns=24
inDegrees=yes

Units are S.I. units (second, meters, Newtons, ...)
Angles are in degrees.

endheader
time	pelvis_tilt	pelvis_list	pelvis_rotation	pelvis_tx	pelvis_ty	pelvis_tz	hip_flexion_r	hip_adduction_r	hip_rotation_r	knee_angle_r	ankle_angle_r	subtalar_angle_r	mtp_angle_r	hip_flexion_l	hip_adduction_l	hip_rotation_l	knee_angle_l	ankle_angle_l	subtalar_angle_l	mtp_angle_l	lumbar_extension	lumbar_bending	lumbar_rotation
      1.27516667	     -0.65694966	      3.37644747	     -4.06333000	      0.22643761	      0.90834515	      0.30756802	     15.62577420	     -7.14508077	     -9.36123377	    -71.78935995	     -3.29675322	      4.48900698	      7.77025766	     12.98529906	      6.76541086	     -4.55896568	    -18.83740063	      9.09740078	     -8.43178552	      1.00057067	     -6.89557912	     -7.17732673	      3.04852934
      1.27933333	     -0.66807724	      3.22422886	     -3.92632333	      0.23158292	      0.90947915	      0.30730187	     16.24844569	     -6.94141258	     -9.52895216	    -71.47522617	     -2.59661675	      4.39699350	      7.75539576	     12.35825428	      6.67319790	     -4.42603668	    -18.30928302	      9.12979389	     -8.30802801	      1.01229396	     -6.93672290	     -6.97955029	      2.88002370
      1.28350000	     -0.65040817	      3.06438256	     -3.77618756	      0.23674681	      0.91064599	      0.30701049	     16.81062363	     -6.73418880	     -9.70851629	    -71.07551304	     -1.92093726	      4.37539790	      7.73622392	     11.68438575	      6.57865068	     -4.25767829	    -17.75020186	      9.16572860	     -8.19784871	      1.02514553	     -7.01066832	     -6.77901942	      2.64432655
      1.28766667	     -0.64085218	      2.89446679	     -3.61401245	      0.24193534	      0.91178829	      0.30672803	     17.35354900	     -6.51255877	     -9.90412971	    -70.59310838	     -1.29144260	      4.31853596	      7.72549823	     11.02057284	      6.46510530	     -4.11086047	    -17.19341715	      9.18712746	     -8.08251574	      1.03464549	     -7.02593544	     -6.59533945	      2.45695855
      1.29183333	     -0.56123084	      2.73002250	     -3.44725619	      0.24710743	      0.91301287	      0.30638458	     17.80181460	     -6.31246688	    -10.10144492	    -70.04185692	     -0.71349592	      4.37763037	      7.68192659	     10.25207496	      6.37679080	     -3.87787249	    -16.56915323	      9.21529494	     -8.03271944	      1.05377596	     -7.18707260	     -6.37677590	      2.07619611
      1.29600000	     -0.55051618	      2.55186226	     -3.26119517	      0.25225599	      0.91408592	      0.30605861	     18.30859890	     -6.08262217	    -10.31116554	    -69.43265805	     -0.11912758	      4.30848523	      7.66567573	      9.59730075	      6.25114391	     -3.70965622	    -16.02080338	      9.19682098	     -7.91881420	      1.06357752	     -7.23180959	     -6.15131318	      1.91142318
      1.30016667	     -0.44213958	      2.37616818	     -3.07602187	      0.25743035	      0.91529323	      0.30569644	     18.67977905	     -5.87308048	    -10.52762626	    -68.73928525	      0.38116467	      4.35230426	      7.61232709	      8.79111357	      6.14588381	     -3.45959723	    -15.37752812	      9.21679710	     -7.88369450	      1.08369275	     -7.41802629	     -5.92653113	      1.54294776
      1.30433333	     -0.37142278	      2.19377717	     -2.87617418	      0.26257555	      0.91640044	      0.30533637	     19.07555836	     -5.64683415	    -10.74478194	    -67.98647589	      0.88643330	      4.34691619	      7.55833875	      8.04815555	      6.02046712	     -3.22811090	    -14.77301213	      9.20148271	     -7.82753295	      1.10251069	     -7.54797590	     -5.69709549	      1.26928608
      1.30850000	     -0.28646543	      2.01262814	     -2.66775785	      0.26772105	      0.91748555	      0.30496668	     19.43502446	     -5.42465188	    -10.96866286	    -67.17046882	      1.36553046	      4.34086521	      7.49617390	      7.28959976	      5.89242892	     -2.99567438	    -14.16304780	      9.17943913	     -7.76816896	      1.12248961	     -7.69085759	     -5.46508586	      0.99304264
      1.31266667	     -0.19220745	      1.84182049	     -2.45240720	      0.27284919	      0.91853812	      0.30458508	     19.76837143	     -5.21615375	    -11.19299891	    -66.29867828	      1.83312854	      4.32807448	      7.39882259	      6.51851978	      5.77323914	     -2.74672421	    -13.53724015	      9.11594205	     -7.74285463	      1.14974363	     -7.84646702	     -5.25393684	      0.67856743
      1.31683333	     -0.08698486	      1.65789020	     -2.23340522	      0.27797769	      0.91956200	      0.30420673	     20.06700849	     -4.99196412	    -11.41984180	    -65.35881311	      2.25637508	      4.32434803	      7.30633735	      5.74142118	      5.63125304	     -2.51310400	    -12.92443172	      9.09034403	     -7.68588042	      1.17629737	     -8.01171366	     -5.01646659	      0.42373344
      1.32100000	      0.02654134	      1.47930939	     -2.00833444	      0.28309812	      0.92054759	      0.30381176	     20.33848072	     -4.77728168	    -11.64918221	    -64.36158109	      2.65367981	      4.32515671	      7.19331708	      4.95519475	      5.49132340	     -2.27440263	    -12.30397653	      9.05188284	     -7.65143416	      1.20748339	     -8.17898290	     -4.77877884	      0.14423835
      1.32516667	      0.15231211	      1.29396253	     -1.78283081	      0.28820441	      0.92149579	      0.30342920	     20.57802871	     -4.55008604	    -11.87203565	    -63.30246898	      3.00142360	      4.32148557	      7.12732255	      4.16608149	      5.33407571	     -2.05318008	    -11.70480609	      9.06503749	     -7.55812531	      1.22739853	     -8.36938460	     -4.53428787	     -0.06659830
      1.32933333	      0.28406263	      1.12103435	     -1.55548829	      0.29330323	      0.92239575	      0.30304956	     20.79558392	     -4.33576139	    -12.08817692	    -62.19262139	      3.33784649	      4.30421209	      7.05793875	      3.36897066	      5.18458414	     -1.83128869	    -11.09335122	      9.03925588	     -7.49107939	      1.24688791	     -8.56138638	     -4.30387910	     -0.31884255
      1.33350000	      0.42025141	      0.95892770	     -1.32583145	      0.29839352	      0.92323897	      0.30266499	     20.99305976	     -4.13302089	    -12.29975435	    -61.03403853	      3.65091029	      4.27669555	      6.97692124	      2.56743383	      5.04225595	     -1.59845136	    -10.47722021	      8.99894981	     -7.44339526	      1.26847301	     -8.75822785	     -4.08819749	     -0.58361478
      1.33766667	      0.55521788	      0.80368117	     -1.09442230	      0.30347285	      0.92401402	      0.30228532	     21.17698511	     -3.93587463	    -12.50414655	    -59.82645799	      3.93314000	      4.24061526	      6.89580412	      1.77399163	      4.89921312	     -1.37637174	     -9.86975994	      8.96828101	     -7.38885417	      1.28999243	     -8.95241129	     -3.87477286	     -0.83296849
      1.34183333	      0.69447018	      0.65597098	     -0.86656748	      0.30853896	      0.92473080	      0.30191701	     21.34232756	     -3.74274841	    -12.69651168	    -58.57006649	      4.18490806	      4.19335067	      6.81691039	      0.97894146	      4.75720547	     -1.16021276	     -9.26493503	      8.94320279	     -7.32535162	      1.31094464	     -9.14822187	     -3.66706253	     -1.07298578
